<?xml version="1.0" encoding="iso-8859-1"?>
<!-- Uploaded to: SVG Repo, www.svgrepo.com, Generator: SVG Repo Mixer Tools -->
<svg height="800px" width="800px" version="1.1" id="Layer_1" xmlns="http://www.w3.org/2000/svg" xmlns:xlink="http://www.w3.org/1999/xlink" 
	 viewBox="0 0 512 512" xml:space="preserve">
<path style="fill:#F4A58C;" d="M503.916,162.998V79.143c0-7.143-5.789-12.935-12.935-12.935h-42.159h-26.406H341.27v324.537h26.521
	c-0.004-0.245-0.019-0.486-0.019-0.731c0-30.806,24.973-55.779,55.779-55.779c30.804,0,55.777,24.973,55.777,55.779
	c0,0.245-0.015,0.486-0.019,0.731h11.674c7.145,0,12.935-5.792,12.935-12.935v-83.855c-36.162,0-65.478-29.315-65.478-65.48
	C438.438,192.314,467.753,162.998,503.916,162.998z"/>
<path style="fill:#FC7A4C;" d="M8.084,79.143v83.855c36.164,0,65.48,29.316,65.48,65.478c0,36.164-29.315,65.48-65.48,65.48v83.855
	c0,7.143,5.792,12.935,12.935,12.935h320.25V66.209H21.019C13.876,66.209,8.084,72,8.084,79.143z"/>
<path style="fill:#F26438;" d="M134.198,178.815c0-40.473,9.548-78.709,26.491-112.607H20.937C13.84,66.209,8.084,72,8.084,79.143
	v75.291c0,3.867,2.924,7.11,6.772,7.505c33.469,3.448,58.708,31.449,58.708,65.131s-25.24,61.684-58.709,65.133
	c-3.847,0.397-6.771,3.638-6.771,7.505v76.697c0,7.132,5.802,12.935,12.935,12.935h226.48
	C179.236,344.205,134.198,266.776,134.198,178.815z"/>
<circle style="fill:#04C051;" cx="423.548" cy="390.015" r="55.778"/>
<path style="fill:#02A544;" d="M393.087,390.015c0-26.45,18.416-48.583,43.121-54.318c-4.068-0.944-8.301-1.459-12.657-1.459
	c-30.806,0-55.779,24.973-55.779,55.779c0,30.804,24.973,55.777,55.779,55.777c4.356,0,8.589-0.515,12.657-1.459
	C411.502,438.596,393.087,416.463,393.087,390.015z"/>
<g>
	<path style="fill:#231F20;" d="M349.353,163.219c0-4.466-3.618-8.084-8.084-8.084c-4.466,0-8.084,3.618-8.084,8.084v21.558
		c0,4.466,3.618,8.084,8.084,8.084c4.466,0,8.084-3.618,8.084-8.084V163.219z"/>
	<path style="fill:#231F20;" d="M349.353,114.714c0-4.466-3.618-8.084-8.084-8.084c-4.466,0-8.084,3.618-8.084,8.084v21.558
		c0,4.466,3.618,8.084,8.084,8.084c4.466,0,8.084-3.618,8.084-8.084V114.714z"/>
	<path style="fill:#231F20;" d="M341.269,300.651c-4.466,0-8.084,3.618-8.084,8.084v21.558c0,4.466,3.618,8.084,8.084,8.084
		c4.466,0,8.084-3.618,8.084-8.084v-21.558C349.353,304.269,345.735,300.651,341.269,300.651z"/>
	<path style="fill:#231F20;" d="M349.353,260.23c0-4.466-3.618-8.084-8.084-8.084c-4.466,0-8.084,3.618-8.084,8.084v21.558
		c0,4.466,3.618,8.084,8.084,8.084c4.466,0,8.084-3.618,8.084-8.084V260.23z"/>
	<path style="fill:#231F20;" d="M349.353,211.724c0-4.466-3.618-8.084-8.084-8.084c-4.466,0-8.084,3.618-8.084,8.084v21.558
		c0,4.466,3.618,8.084,8.084,8.084c4.466,0,8.084-3.618,8.084-8.084V211.724z"/>
	<path style="fill:#231F20;" d="M279.813,271.51H129.985c-4.466,0-8.084,3.618-8.084,8.084c0,4.466,3.618,8.084,8.084,8.084h149.827
		c4.466,0,8.084-3.618,8.084-8.084C287.897,275.128,284.277,271.51,279.813,271.51z"/>
	<path style="fill:#231F20;" d="M279.813,237.47H129.985c-4.466,0-8.084,3.618-8.084,8.084s3.618,8.084,8.084,8.084h149.827
		c4.466,0,8.084-3.618,8.084-8.084S284.277,237.47,279.813,237.47z"/>
	<path style="fill:#231F20;" d="M279.813,203.43H129.985c-4.466,0-8.084,3.618-8.084,8.084s3.618,8.084,8.084,8.084h149.827
		c4.466,0,8.084-3.618,8.084-8.084S284.277,203.43,279.813,203.43z"/>
	<path style="fill:#231F20;" d="M129.985,185.557h79.617c4.466,0,8.084-3.618,8.084-8.084s-3.618-8.084-8.084-8.084h-79.617
		c-4.466,0-8.084,3.618-8.084,8.084S125.52,185.557,129.985,185.557z"/>
	<path style="fill:#231F20;" d="M448.427,371.225c-3.374-2.923-8.479-2.558-11.403,0.815l-17.897,20.65l-7.523-6.932
		c-3.284-3.026-8.4-2.815-11.424,0.47c-3.026,3.283-2.815,8.398,0.468,11.423l13.653,12.577c1.497,1.378,3.454,2.137,5.478,2.137
		c0.151,0,0.302-0.004,0.454-0.013c2.183-0.123,4.223-1.124,5.656-2.777l23.354-26.947
		C452.164,379.256,451.8,374.149,448.427,371.225z"/>
	<path style="fill:#231F20;" d="M503.916,171.082c4.466,0,8.084-3.618,8.084-8.084V79.143c0-11.59-9.429-21.019-21.019-21.019
		h-42.159c-4.465,0-8.084,3.618-8.084,8.084s3.62,8.084,8.084,8.084h42.159c2.674,0,4.851,2.176,4.851,4.851v76.211
		c-36.775,4.037-65.478,35.289-65.478,73.121c0,37.833,28.703,69.087,65.478,73.123v76.211c0,2.674-2.176,4.851-4.851,4.851h-3.989
		c-0.055-0.481-0.133-0.954-0.199-1.431c-0.055-0.399-0.103-0.8-0.166-1.196c-0.105-0.661-0.229-1.315-0.352-1.969
		c-0.068-0.356-0.126-0.715-0.199-1.068c-0.156-0.752-0.335-1.497-0.518-2.241c-0.06-0.247-0.112-0.498-0.176-0.745
		c-0.257-0.988-0.535-1.968-0.836-2.937c-0.053-0.168-0.114-0.332-0.168-0.5c-0.254-0.794-0.517-1.585-0.802-2.365
		c-0.124-0.338-0.261-0.669-0.39-1.006c-0.231-0.601-0.461-1.204-0.709-1.797c-0.158-0.378-0.331-0.75-0.496-1.125
		c-0.239-0.54-0.476-1.08-0.73-1.611c-0.186-0.392-0.384-0.777-0.578-1.164c-0.252-0.503-0.506-1.007-0.771-1.502
		c-0.211-0.395-0.43-0.783-0.649-1.172c-0.269-0.479-0.54-0.955-0.821-1.426c-0.231-0.387-0.469-0.771-0.707-1.152
		c-0.288-0.46-0.58-0.917-0.878-1.37c-0.25-0.378-0.506-0.753-0.763-1.127c-0.306-0.443-0.619-0.881-0.936-1.315
		c-0.268-0.368-0.538-0.732-0.814-1.093c-0.327-0.429-0.662-0.85-0.999-1.271c-0.282-0.351-0.565-0.703-0.855-1.048
		c-0.349-0.416-0.707-0.824-1.066-1.231c-0.295-0.334-0.59-0.67-0.891-0.999c-0.374-0.406-0.759-0.802-1.144-1.199
		c-0.303-0.313-0.603-0.628-0.912-0.935c-0.41-0.405-0.83-0.798-1.25-1.192c-0.301-0.282-0.595-0.569-0.901-0.846
		c-0.472-0.427-0.958-0.838-1.443-1.25c-0.267-0.227-0.528-0.462-0.799-0.686c-0.757-0.623-1.527-1.23-2.312-1.818
		c-0.164-0.123-0.335-0.236-0.5-0.358c-0.633-0.465-1.269-0.924-1.919-1.366c-0.31-0.211-0.631-0.409-0.945-0.614
		c-0.515-0.337-1.029-0.675-1.554-0.998c-0.357-0.219-0.721-0.425-1.082-0.636c-0.496-0.291-0.992-0.583-1.496-0.861
		c-0.383-0.211-0.772-0.41-1.159-0.613c-0.496-0.26-0.992-0.52-1.494-0.766c-0.402-0.197-0.808-0.385-1.215-0.573
		c-0.501-0.233-1.004-0.463-1.511-0.684c-0.416-0.18-0.835-0.352-1.256-0.525c-0.51-0.208-1.023-0.413-1.539-0.608
		c-0.427-0.162-0.855-0.317-1.286-0.47c-0.523-0.185-1.048-0.363-1.577-0.535c-0.434-0.141-0.87-0.279-1.308-0.411
		c-0.537-0.162-1.077-0.314-1.619-0.46c-0.44-0.12-0.879-0.238-1.322-0.349c-0.554-0.138-1.111-0.263-1.671-0.387
		c-0.44-0.097-0.878-0.196-1.322-0.283c-0.578-0.114-1.161-0.213-1.744-0.313c-0.432-0.073-0.863-0.152-1.299-0.216
		c-0.614-0.091-1.234-0.163-1.853-0.236c-0.412-0.049-0.82-0.106-1.235-0.147c-0.692-0.068-1.39-0.113-2.089-0.16
		c-0.348-0.023-0.693-0.057-1.042-0.074c-1.051-0.052-2.107-0.081-3.171-0.081s-2.12,0.029-3.171,0.081
		c-0.348,0.017-0.693,0.051-1.04,0.073c-0.7,0.045-1.398,0.092-2.091,0.16c-0.413,0.041-0.82,0.097-1.231,0.146
		c-0.621,0.073-1.242,0.146-1.857,0.237c-0.434,0.065-0.863,0.142-1.295,0.216c-0.585,0.099-1.17,0.198-1.749,0.314
		c-0.441,0.087-0.877,0.185-1.315,0.282c-0.562,0.124-1.122,0.25-1.678,0.388c-0.441,0.11-0.877,0.227-1.315,0.347
		c-0.545,0.148-1.088,0.301-1.628,0.464c-0.435,0.13-0.868,0.267-1.299,0.407c-0.532,0.172-1.062,0.352-1.589,0.539
		c-0.426,0.151-0.85,0.305-1.273,0.465c-0.522,0.197-1.04,0.403-1.555,0.614c-0.415,0.169-0.83,0.341-1.241,0.518
		c-0.514,0.223-1.022,0.456-1.53,0.692c-0.4,0.186-0.801,0.371-1.196,0.565c-0.511,0.251-1.014,0.514-1.517,0.778
		c-0.379,0.199-0.761,0.395-1.136,0.6c-0.515,0.284-1.022,0.582-1.528,0.88c-0.35,0.206-0.704,0.405-1.05,0.618
		c-0.543,0.333-1.076,0.683-1.608,1.032c-0.296,0.194-0.599,0.38-0.893,0.58c-0.69,0.469-1.367,0.955-2.037,1.45
		c-0.126,0.093-0.257,0.18-0.383,0.274c-0.789,0.591-1.563,1.202-2.324,1.827c-0.25,0.206-0.489,0.423-0.735,0.632
		c-0.507,0.43-1.013,0.86-1.506,1.305c-0.293,0.265-0.577,0.541-0.864,0.812c-0.432,0.405-0.866,0.81-1.286,1.227
		c-0.3,0.297-0.59,0.604-0.884,0.906c-0.395,0.406-0.788,0.812-1.172,1.229c-0.295,0.32-0.582,0.649-0.87,0.975
		c-0.366,0.415-0.731,0.83-1.088,1.255c-0.285,0.34-0.562,0.684-0.84,1.029c-0.343,0.427-0.683,0.856-1.015,1.291
		c-0.271,0.355-0.536,0.714-0.8,1.075c-0.322,0.441-0.639,0.885-0.95,1.334c-0.254,0.368-0.506,0.737-0.751,1.109
		c-0.303,0.459-0.599,0.922-0.891,1.388c-0.235,0.376-0.469,0.752-0.696,1.134c-0.286,0.479-0.56,0.963-0.833,1.449
		c-0.215,0.382-0.43,0.763-0.637,1.15c-0.269,0.503-0.526,1.013-0.781,1.524c-0.191,0.382-0.386,0.76-0.569,1.146
		c-0.257,0.539-0.497,1.085-0.738,1.632c-0.163,0.369-0.332,0.734-0.488,1.106c-0.252,0.602-0.485,1.212-0.719,1.822
		c-0.126,0.328-0.261,0.651-0.382,0.982c-0.29,0.794-0.558,1.6-0.816,2.408c-0.048,0.153-0.106,0.303-0.153,0.456
		c-0.302,0.97-0.581,1.951-0.836,2.94c-0.064,0.246-0.114,0.497-0.176,0.744c-0.183,0.744-0.362,1.489-0.518,2.242
		c-0.073,0.354-0.133,0.713-0.199,1.068c-0.124,0.654-0.248,1.307-0.352,1.969c-0.063,0.397-0.111,0.799-0.167,1.198
		c-0.066,0.476-0.143,0.95-0.198,1.429h-11.735c0.625-1.148,0.981-2.464,0.981-3.863v-21.558c0-4.466-3.618-8.084-8.084-8.084
		s-8.084,3.618-8.084,8.084v21.558c0,1.399,0.356,2.715,0.981,3.863H21.019c-2.674,0-4.851-2.176-4.851-4.851v-76.211
		c36.775-4.037,65.48-35.29,65.48-73.123c0-37.832-28.705-69.084-65.48-73.121v-76.21c0-2.674,2.176-4.851,4.851-4.851h312.166
		v13.474c0,4.466,3.618,8.084,8.084,8.084c4.466,0,8.084-3.618,8.084-8.084V74.293h73.062c4.465,0,8.084-3.618,8.084-8.084
		s-3.62-8.084-8.084-8.084H21.019C9.429,58.124,0,67.554,0,79.143v83.855c0,4.466,3.618,8.084,8.084,8.084
		c31.648,0,57.396,25.747,57.396,57.394c0,31.648-25.748,57.396-57.396,57.396c-4.466,0-8.084,3.618-8.084,8.084v83.855
		c0,11.59,9.429,21.019,21.019,21.019H360.31c4.308,31.054,31.019,55.046,63.24,55.046s58.93-23.992,63.238-55.046h4.192
		c11.59,0,21.019-9.429,21.019-21.019v-83.855c0-4.466-3.618-8.084-8.084-8.084c-31.646,0-57.394-25.748-57.394-57.396
		C446.522,196.828,472.27,171.082,503.916,171.082z M423.55,437.707c-26.084,0-47.332-21.049-47.679-47.051
		c0-0.016,0.002-0.033,0.001-0.05l-0.018-0.592c0-26.298,21.396-47.695,47.695-47.695c2.465,0,4.888,0.188,7.253,0.551
		c22.865,3.504,40.434,23.305,40.439,47.134l-0.017,0.601c0,0.017,0.002,0.033,0.001,0.05
		C470.88,416.658,449.633,437.707,423.55,437.707z"/>
</g>
</svg>